<svg xmlns="http://www.w3.org/2000/svg" viewBox="0 0 81.28 67.88"><defs><style>.cls-1{fill:none;stroke:#000;stroke-miterlimit:10;stroke-width:2px;}</style></defs><g id="Ebene_2" data-name="Ebene 2"><g id="Ebene_1-2" data-name="Ebene 1"><rect y="18.44" width="27" height="31"/><polygon points="37 63.44 1 33.46 37 3.48 37 63.44"/><path d="M67.21,67.88l-1.42-1.41a46.05,46.05,0,0,0,0-65.06L67.21,0A48.06,48.06,0,0,1,67.21,67.88Z"/><path class="cls-1" d="M66.5,67.18A47,47,0,0,0,66.5.71"/><path d="M57.21,60.88l-1.42-1.41a35.26,35.26,0,0,0,0-49.82l1.42-1.42A37.28,37.28,0,0,1,57.21,60.88Z"/><path class="cls-1" d="M56.5,60.18a36.21,36.21,0,0,0,0-51.24"/><path d="M47.21,52.65l-1.42-1.42a24.65,24.65,0,0,0,0-34.82L47.21,15A26.65,26.65,0,0,1,47.21,52.65Z"/><path class="cls-1" d="M46.5,51.94a25.61,25.61,0,0,0,0-36.23"/></g></g></svg>